<svg width="87" height="27" viewBox="0 0 87 27" fill="none" xmlns="http://www.w3.org/2000/svg">
<path fill-rule="evenodd" clip-rule="evenodd" d="M53.89 20.4526C48.8606 24.1712 41.5453 26.1525 35.2357 26.1525C26.3963 26.1525 18.4713 22.891 12.4361 17.4654C11.9789 17.0387 12.3752 16.4596 12.9543 16.7949C19.4467 20.5745 27.4631 22.8301 35.7539 22.8301C41.3319 22.8301 47.489 21.6718 53.1584 19.2638C54.0119 18.9285 54.713 19.8429 53.89 20.4526Z" fill="#FF9900"/>
<path fill-rule="evenodd" clip-rule="evenodd" d="M55.9931 18.0446C55.353 17.2216 51.7258 17.6484 50.1103 17.8617C49.6226 17.9227 49.5312 17.4959 49.9884 17.1911C52.8841 15.1489 57.6086 15.7585 58.1573 16.4291C58.7059 17.0997 58.0049 21.8547 55.2921 24.1103C54.8653 24.4456 54.4691 24.2627 54.652 23.8055C55.2616 22.2814 56.6332 18.8981 55.9931 18.0446Z" fill="#FF9900"/>
<path fill-rule="evenodd" clip-rule="evenodd" d="M50.2018 2.86519V0.88394C50.2018 0.579133 50.4152 0.396246 50.6895 0.396246H59.5289C59.8032 0.396246 60.0471 0.609613 60.0471 0.88394V2.56038C60.0471 2.83471 59.8032 3.20048 59.3765 3.8101L54.8044 10.333C56.5113 10.3025 58.3097 10.5463 59.8337 11.3998C60.169 11.5827 60.2605 11.8875 60.2909 12.1618V14.265C60.2909 14.5698 59.9861 14.9051 59.6509 14.7222C56.9381 13.2896 53.3109 13.1372 50.3237 14.7527C50.0189 14.9051 49.6836 14.6003 49.6836 14.2955V12.2837C49.6836 11.9789 49.6836 11.4303 50.0189 10.9426L55.3226 3.35288H50.72C50.4457 3.35288 50.2018 3.13952 50.2018 2.86519V2.86519ZM17.9836 15.1489H15.3013C15.0575 15.1185 14.8441 14.9356 14.8137 14.6917V0.914423C14.8137 0.640096 15.0575 0.426729 15.3318 0.426729H17.8312C18.1056 0.426729 18.2885 0.640094 18.3189 0.88394V2.6823H18.3799C19.02 0.9449 20.2697 0.121921 21.9157 0.121921C23.5921 0.121921 24.6589 0.9449 25.3905 2.6823C26.0306 0.9449 27.5241 0.121921 29.1091 0.121921C30.2369 0.121921 31.4561 0.579133 32.2182 1.64596C33.0716 2.80423 32.8887 4.48067 32.8887 5.97423V14.6917C32.8887 14.966 32.6449 15.1794 32.3706 15.1794H29.7187C29.4444 15.1489 29.231 14.9356 29.231 14.6917V7.37634C29.231 6.7972 29.292 5.33413 29.1701 4.78547C28.9567 3.87105 28.3776 3.59673 27.5851 3.59673C26.945 3.59673 26.2439 4.02346 25.9696 4.72452C25.6953 5.42558 25.7258 6.58384 25.7258 7.37634V14.6917C25.7258 14.966 25.4819 15.1794 25.2076 15.1794H22.5253C22.251 15.1489 22.0376 14.9356 22.0376 14.6917V7.37634C22.0376 5.8523 22.2814 3.56624 20.3916 3.56624C18.4713 3.56624 18.5323 5.76086 18.5323 7.37634V14.6917C18.5018 14.9356 18.2885 15.1489 17.9836 15.1489V15.1489ZM67.6673 0.121921C71.6603 0.121921 73.8244 3.53577 73.8244 7.89452C73.8244 12.1009 71.4469 15.4537 67.6673 15.4537C63.7658 15.4537 61.6321 12.0399 61.6321 7.77259C61.6016 3.47481 63.7658 0.121921 67.6673 0.121921ZM67.6673 2.95663C65.686 2.95663 65.5641 5.66942 65.5641 7.34587C65.5641 9.02231 65.5336 12.619 67.6368 12.619C69.7095 12.619 69.8314 9.72336 69.8314 7.95548C69.8314 6.79721 69.7705 5.3951 69.4352 4.29779C69.1304 3.3224 68.5207 2.95663 67.6673 2.95663ZM78.9757 15.1489H76.2933C76.019 15.1185 75.8057 14.9051 75.8057 14.6612V0.853458C75.8361 0.609611 76.0495 0.396246 76.3238 0.396246H78.8232C79.0671 0.396246 79.25 0.579136 79.3109 0.792502V2.89567H79.3719C80.1339 1.00587 81.1703 0.121921 83.0296 0.121921C84.2183 0.121921 85.4071 0.548648 86.1691 1.7374C86.8702 2.83471 86.8702 4.69403 86.8702 6.03519V14.7222C86.8397 14.966 86.6263 15.1489 86.352 15.1489H83.6697C83.4258 15.1185 83.2125 14.9356 83.182 14.7222V7.22393C83.182 5.6999 83.3649 3.50529 81.5056 3.50529C80.8655 3.50529 80.2558 3.93202 79.951 4.6026C79.5853 5.45606 79.5243 6.27903 79.5243 7.22393V14.6612C79.4938 14.9356 79.25 15.1489 78.9757 15.1489V15.1489ZM43.1608 8.5651C43.1608 9.60144 43.1912 10.4854 42.6731 11.4303C42.2463 12.1923 41.5758 12.6495 40.8137 12.6495C39.7774 12.6495 39.1678 11.857 39.1678 10.6987C39.1678 8.41269 41.21 7.98595 43.1608 7.98595V8.5651ZM45.8735 15.1185C45.6907 15.2709 45.4468 15.3013 45.2334 15.1794C44.3495 14.4479 44.1666 14.0821 43.6789 13.3811C42.2158 14.8746 41.149 15.3318 39.2592 15.3318C37.0036 15.3318 35.2358 13.9297 35.2358 11.156C35.2358 8.96135 36.4245 7.49826 38.101 6.76672C39.564 6.12663 41.6062 6.00471 43.1608 5.82183V5.48654C43.1608 4.84644 43.2217 4.08442 42.8255 3.53577C42.4902 3.04808 41.8806 2.83471 41.3319 2.83471C40.2956 2.83471 39.3811 3.35289 39.1678 4.45019C39.1068 4.69404 38.9544 4.93788 38.7106 4.93788L36.1197 4.66355C35.9063 4.60259 35.6625 4.45019 35.7235 4.1149C36.3331 0.944904 39.1678 0 41.7282 0C43.0388 0 44.7458 0.335287 45.7821 1.34115C47.0928 2.56038 46.9709 4.20635 46.9709 5.97423V10.1501C46.9709 11.3998 47.489 11.9485 47.9767 12.6495C48.1596 12.8934 48.1901 13.1982 47.9767 13.3506C47.3976 13.8078 46.4222 14.6612 45.8735 15.1185V15.1185ZM7.95548 8.5651C7.95548 9.60144 7.98596 10.4854 7.46779 11.4303C7.04106 12.1923 6.37048 12.6495 5.60846 12.6495C4.57211 12.6495 3.9625 11.857 3.9625 10.6987C3.9625 8.41269 6.00471 7.98595 7.95548 7.98595V8.5651ZM10.6378 15.1185C10.4549 15.2709 10.2111 15.3013 9.99769 15.1794C9.11375 14.4479 8.93086 14.0821 8.44317 13.3811C6.98009 14.8746 5.91327 15.3318 4.02346 15.3318C1.76788 15.3318 0 13.9297 0 11.156C0 8.96135 1.18875 7.49826 2.86519 6.76672C4.32827 6.12663 6.37048 6.00471 7.925 5.82183V5.48654C7.925 4.84644 7.98596 4.08442 7.58971 3.53577C7.25442 3.04808 6.64481 2.83471 6.09615 2.83471C5.05981 2.83471 4.14538 3.35289 3.93202 4.45019C3.87105 4.69404 3.71865 4.93788 3.4748 4.93788L0.88394 4.66355C0.670575 4.60259 0.426733 4.45019 0.487694 4.1149C1.09731 0.944904 3.93202 0 6.4924 0C7.80308 0 9.51 0.335287 10.5463 1.34115C11.857 2.56038 11.7351 4.20635 11.7351 5.97423V10.1501C11.7351 11.3998 12.2533 11.9485 12.741 12.6495C12.9238 12.8934 12.9543 13.1982 12.741 13.3506C12.1618 13.8078 11.1864 14.6612 10.6378 15.1185V15.1185Z" fill="black"/>
</svg>
