<svg width="153" height="19" viewBox="0 0 153 19" fill="none" xmlns="http://www.w3.org/2000/svg">
<g clip-path="url(#clip0_19_25)">
<path d="M5.56476 8.66617C5.50902 8.59317 5.4354 8.53579 5.35103 8.49959C5.26665 8.46338 5.17437 8.44958 5.0831 8.4595C4.99184 8.46942 4.90467 8.50274 4.83003 8.55624C4.75539 8.60974 4.69581 8.6816 4.65703 8.76488L0.0574187 17.9689C0.0155168 18.0528 -0.00426699 18.146 -5.44411e-05 18.2397C0.00415811 18.3334 0.0322272 18.4244 0.0814879 18.5042C0.130749 18.584 0.199566 18.6498 0.281405 18.6955C0.363245 18.7412 0.455391 18.7652 0.549094 18.7652H6.95382C7.0564 18.7676 7.15746 18.7401 7.24474 18.6861C7.33202 18.6321 7.40176 18.5539 7.44549 18.461C8.82707 15.6037 7.98979 11.2593 5.56476 8.66617Z" fill="url(#paint0_linear_19_25)"/>
<path d="M8.93837 0.294664C7.79227 2.05961 7.12438 4.09246 7.00022 6.19372C6.87607 8.29498 7.29992 10.3924 8.23018 12.2803L11.318 18.461C11.3636 18.5524 11.4338 18.6293 11.5206 18.683C11.6075 18.7367 11.7075 18.7652 11.8096 18.7652H18.2132C18.3069 18.7652 18.3991 18.7412 18.4809 18.6955C18.5627 18.6498 18.6316 18.584 18.6808 18.5042C18.7301 18.4244 18.7581 18.3334 18.7624 18.2397C18.7666 18.146 18.7468 18.0528 18.7049 17.9689C18.7049 17.9689 10.0899 0.722577 9.87341 0.291211C9.83061 0.203405 9.76394 0.129454 9.68105 0.07784C9.59817 0.0262262 9.50243 -0.000959697 9.40481 -0.000599183C9.30719 -0.000238668 9.21165 0.0276536 9.12915 0.0798782C9.04665 0.132103 8.98052 0.206544 8.93837 0.294664V0.294664Z" fill="#2684FF"/>
<path d="M84.0489 7.67453C84.0489 9.95366 85.1053 11.7632 89.2374 12.562C91.7026 13.08 92.219 13.4783 92.219 14.3007C92.219 15.0996 91.7015 15.6167 89.9651 15.6167C87.8665 15.5789 85.8098 15.0219 83.9785 13.9954V17.7076C85.2229 18.3186 86.8661 19 89.9182 19C94.2381 19 95.952 17.0719 95.952 14.2066L84.0489 7.67453ZM95.952 14.2066C95.952 11.5045 94.5199 10.2354 90.4818 9.36633C88.2514 8.8728 87.7114 8.37956 87.7114 7.67453C87.7114 6.78244 88.5096 6.40575 89.9887 6.40575C91.7731 6.40575 93.5339 6.94618 95.2007 7.69812V4.14992C93.6024 3.42186 91.8617 3.06062 90.106 3.09266C86.1148 3.09266 84.0489 4.83136 84.0489 7.67453" fill="#0052CC"/>
<path d="M139.547 3.32751V18.7652H142.834V6.99313L144.219 10.118L148.868 18.7652H153V3.32751H149.713V13.2904L148.469 10.4L144.736 3.32751H139.547Z" fill="#0052CC"/>
<path d="M118.642 3.32751H115.05V18.7652H118.642V3.32751Z" fill="#0052CC"/>
<path d="M110.905 14.2066C110.905 11.5045 109.473 10.2354 105.435 9.36633C103.205 8.8728 102.665 8.37956 102.665 7.67453C102.665 6.78244 103.463 6.40575 104.942 6.40575C106.726 6.40575 108.487 6.94618 110.154 7.69812V4.14992C108.556 3.42186 106.815 3.06062 105.059 3.09266C101.068 3.09266 99.0022 4.83136 99.0022 7.67453C99.0022 9.95366 100.059 11.7632 104.191 12.562C106.656 13.08 107.172 13.4783 107.172 14.3007C107.172 15.0996 106.655 15.6167 104.918 15.6167C102.82 15.5789 100.763 15.0219 98.9318 13.9954V17.7076C100.176 18.3186 101.819 19 104.872 19C109.191 19 110.905 17.0719 110.905 14.2066" fill="#0052CC"/>
<path d="M56.1445 3.32751V18.7652H63.5277L64.6901 15.4285H59.7599V3.32751H56.1445Z" fill="#0052CC"/>
<path d="M41.5575 3.32751V6.66392H45.5487V18.7652H49.1641V6.66392H53.4371V3.32751H41.5575Z" fill="#0052CC"/>
<path d="M36.315 3.32751H31.5768L26.1979 18.7652H30.3056L31.0681 16.1652C32.9461 16.7171 34.943 16.7171 36.821 16.1652L37.5835 18.7652H41.692L36.315 3.32751ZM33.9457 13.3813C33.2766 13.3813 32.6109 13.2854 31.9689 13.0967L33.9457 6.35974L35.9225 13.099C35.2804 13.287 34.6147 13.382 33.9457 13.3813V13.3813Z" fill="#0052CC"/>
<path d="M76.256 3.32751H71.5181L66.1393 18.7652H70.2478L71.0103 16.1652C72.8883 16.7171 74.8852 16.7171 76.7632 16.1652L77.5258 18.7652H81.6343L76.256 3.32751ZM73.8871 13.3813C73.2179 13.3813 72.5523 13.2854 71.9103 13.0967L73.8871 6.35974L75.8638 13.099C75.2217 13.287 74.5561 13.382 73.8871 13.3813Z" fill="#0052CC"/>
<path d="M131.586 3.32751H126.848L121.469 18.7652H125.578L126.34 16.1652C128.218 16.7171 130.215 16.7171 132.093 16.1652L132.856 18.7652H136.965L131.586 3.32751ZM129.216 13.3813C128.547 13.3813 127.881 13.2854 127.239 13.0967L129.216 6.35974L131.193 13.099C130.55 13.287 129.885 13.382 129.216 13.3813V13.3813Z" fill="#0052CC"/>
</g>
<defs>
<linearGradient id="paint0_linear_19_25" x1="8.08554" y1="10.0866" x2="3.22538" y2="18.4978" gradientUnits="userSpaceOnUse">
<stop stop-color="#0052CC"/>
<stop offset="0.923" stop-color="#2684FF"/>
</linearGradient>
<clipPath id="clip0_19_25">
<rect width="153" height="19" fill="white"/>
</clipPath>
</defs>
</svg>
