<svg width="93" height="24" viewBox="0 0 93 24" fill="none" xmlns="http://www.w3.org/2000/svg">
<g clip-path="url(#clip0_19_21)">
<path d="M35.7275 18.0138C35.5245 18.3423 35.3623 18.6243 35.1818 18.893C34.604 19.7529 34.0466 20.6293 33.4265 21.4555C33.0923 21.9005 32.6695 22.2859 32.2462 22.6487C30.7786 23.9069 29.0362 23.2528 28.1834 22.1577C27.9569 21.867 27.7704 21.5441 27.5779 21.2544C27.1584 21.6424 26.7545 22.0576 26.3084 22.4183C25.5912 22.9988 24.7914 23.3754 23.8455 23.3237C22.7845 23.2659 21.9796 22.7636 21.4086 21.8549C20.8466 20.9607 20.6246 19.9525 20.5157 18.9143C20.3876 17.6954 20.425 16.4757 20.5498 15.2576C20.5713 15.0482 20.5831 14.8361 20.5778 14.6255C20.5685 14.2327 20.4142 14.02 20.0399 13.9486C19.5242 13.8506 19.0017 13.7888 18.4959 13.713C18.215 14.4631 17.9671 15.1997 17.6667 15.9122C16.8935 17.7459 15.9191 19.4627 14.7193 21.0377C14.4678 21.368 14.1765 21.6742 13.8673 21.9483C12.8004 22.8968 11.5565 23.0072 10.3582 22.2377C9.93191 21.9641 9.56323 21.5953 9.20671 21.3018C8.77012 21.8082 8.35 22.3836 7.84477 22.8642C6.51071 24.1338 4.97033 24.3139 3.3583 23.5294C1.48516 22.6181 0.437471 21.0363 0.108819 18.9459C-0.125559 17.4556 0.0403575 16.0134 0.704957 14.6578C1.2721 13.5007 2.08017 12.5738 3.35382 12.2704C4.32051 12.0402 5.30253 12.0903 6.25763 12.4895C6.19627 11.8984 6.1207 11.3181 6.07824 10.7355C5.89792 8.24914 5.94076 5.78031 6.69009 3.37577C6.87602 2.7793 7.11564 2.20766 7.49928 1.71128C8.27481 0.708118 9.50356 0.514492 10.5251 1.25608C11.381 1.87757 11.8475 2.78219 12.1534 3.77919C12.5069 4.93074 12.563 6.1258 12.5454 7.32162C12.485 11.4014 11.7368 15.3396 10.2181 19.1164C10.1779 19.2167 10.1824 19.3751 10.2334 19.4664C10.3969 19.7591 10.5705 20.0519 10.7806 20.3096C11.0179 20.601 11.1829 20.6039 11.5086 20.4247C12.6745 19.7822 13.5323 18.842 14.1965 17.6639C14.9952 16.2475 15.7208 14.8051 16.204 13.2411C16.2569 13.0692 16.2496 12.9643 16.0989 12.8259C15.1988 11.9989 14.7399 10.962 14.88 9.71423C15.0087 8.56883 15.9965 8.00643 17.0302 8.46586C17.9928 8.89372 18.4926 9.71808 18.7359 10.727C18.876 11.3081 18.8618 11.3135 19.4501 11.4018C20.1908 11.5133 20.9385 11.5883 21.6717 11.7379C22.8711 11.9825 23.4111 12.6486 23.4091 13.9068C23.4078 14.6946 23.3081 15.4816 23.2677 16.2692C23.2177 17.2424 23.1835 18.2168 23.4072 19.175C23.461 19.4065 23.5448 19.6295 23.6566 19.838C23.9104 20.3073 24.3464 20.4666 24.8189 20.2374C25.0881 20.1069 25.3546 19.9275 25.5587 19.7073C25.9827 19.25 26.3686 18.755 26.7573 18.2648C26.8149 18.1922 26.8258 18.0604 26.82 17.9578C26.7066 15.9409 26.8445 13.9388 27.1533 11.9479C27.2959 11.0298 27.5794 10.8743 28.415 11.222C29.2889 11.5858 29.643 12.114 29.6159 13.0875C29.5816 14.2987 29.5072 15.5091 29.4793 16.7204C29.4604 17.5455 29.4464 18.3781 29.6737 19.1815C29.7545 19.4667 29.8768 19.7553 30.0437 19.9962C30.4326 20.5588 31.087 20.6264 31.5704 20.1521C31.839 19.8886 32.0854 19.5866 32.2834 19.2645C33.3352 17.5499 34.3698 15.8242 35.405 14.0987C35.4617 14.0046 35.494 13.8774 35.4929 13.7657C35.4719 11.6145 35.5597 9.46902 35.8317 7.3349C36.0335 5.7499 36.2912 4.17279 36.9072 2.69288C37.1152 2.19303 37.3861 1.70069 37.7173 1.27937C38.3961 0.416332 39.3507 0.343578 40.2001 1.03532C40.9098 1.61331 41.2274 2.40129 41.2914 3.30994C41.3912 4.72499 41.1043 6.08692 40.7274 7.43171C39.9936 10.0511 38.9152 12.5249 37.6994 14.9402C37.6093 15.1252 37.5649 15.3302 37.5701 15.5371C37.6137 16.8518 37.7145 18.1604 38.1831 19.403C38.3213 19.7693 38.4697 20.1398 38.6724 20.4701C38.8791 20.8069 39.1266 21.1337 39.4137 21.399C39.9582 21.9019 40.5598 21.9196 41.144 21.4646C41.4206 21.2483 41.6654 20.992 41.8707 20.7036C42.3967 19.9618 42.6774 19.1137 42.7543 18.2009C42.7644 18.0827 42.6845 17.9339 42.6045 17.8346C42.3781 17.5526 42.1017 17.3099 41.8955 17.0145C41.2128 16.0356 40.701 14.9731 40.516 13.7675C40.4997 13.6587 40.4912 13.5488 40.4904 13.4387C40.482 12.5366 41.03 12.0991 41.8589 12.41C42.2238 12.5468 42.5845 12.7836 42.8619 13.0644C43.8624 14.0752 44.4748 15.3134 44.7316 16.7333C44.7661 16.9217 44.7589 17.1057 45.0232 17.138C45.4252 17.1879 45.6024 17.1436 45.7318 16.864C45.827 16.6584 45.8745 16.4265 45.9851 16.2313C46.2004 15.8527 46.4488 15.4945 46.677 15.1238C46.9108 14.7445 47.142 14.3638 47.3616 13.9757C47.4014 13.9055 47.3846 13.7967 47.3835 13.7067C47.3573 11.5645 47.4519 9.42822 47.7224 7.30295C47.9171 5.7728 48.1656 4.24901 48.7467 2.81606C48.9674 2.27252 49.2536 1.73534 49.6096 1.27706C50.2802 0.413638 51.2516 0.347812 52.092 1.03821C52.799 1.61966 53.1168 2.40687 53.1795 3.31533C53.2779 4.73019 52.9908 6.09211 52.614 7.43672C51.8765 10.0647 50.7987 12.5491 49.5683 14.9666C49.512 15.0771 49.4444 15.2041 49.448 15.3215C49.4944 16.709 49.5847 18.0917 50.0694 19.4086C50.2944 20.0207 50.5587 20.6121 50.9923 21.1029C51.1231 21.2533 51.2695 21.3885 51.4289 21.5062C51.9165 21.8615 52.4347 21.893 52.924 21.5364C53.2109 21.3275 53.4846 21.0743 53.6988 20.7879C54.2665 20.0286 54.56 19.1478 54.6445 18.196C54.6537 18.0933 54.6219 17.9431 54.5529 17.8829C53.7306 17.1682 53.2242 16.2328 52.8234 15.2353C52.6339 14.7654 52.5374 14.2554 52.4047 13.7617C52.3814 13.6753 52.3821 13.5802 52.3799 13.4884C52.3569 12.5062 52.959 12.077 53.857 12.4346C54.3544 12.6327 54.7422 12.9853 55.0745 13.3989C55.8903 14.4151 56.4535 15.5578 56.6404 16.8745C56.6632 17.0347 56.7303 17.0936 56.8641 17.1249C57.3731 17.245 57.5715 17.1163 57.72 16.5941C57.7617 16.4476 57.8435 16.3108 57.9228 16.1801C58.3366 15.4945 58.7597 14.8137 59.1676 14.1245C59.2329 14.0148 59.2701 13.8683 59.269 13.7394C59.2512 11.7446 59.3249 9.75445 59.5552 7.77296C59.752 6.08538 59.9991 4.40337 60.6347 2.82184C60.8595 2.26175 61.1616 1.71109 61.5312 1.24126C62.1764 0.419989 63.147 0.36167 63.956 1.01742C64.675 1.60003 65.0033 2.39128 65.0679 3.31052C65.1677 4.72557 64.8793 6.08749 64.5031 7.43229C63.7699 10.052 62.6912 12.5253 61.4751 14.9402C61.3842 15.125 61.339 15.3301 61.3438 15.5372C61.391 16.8609 61.5021 18.1762 61.9641 19.4307C62.1837 20.0255 62.4452 20.5975 62.8584 21.0795C62.9817 21.2244 63.1189 21.3562 63.2678 21.4729C63.7746 21.8657 64.3108 21.8994 64.8305 21.525C65.1109 21.3227 65.3756 21.0719 65.5834 20.7925C66.1494 20.0322 66.4464 19.1534 66.5302 18.2014C66.5396 18.0975 66.5117 17.9454 66.4433 17.886C65.6073 17.1582 65.1058 16.2024 64.6878 15.1906C64.4392 14.5884 64.2474 13.9669 64.2684 13.3005C64.2845 12.7793 64.5254 12.4173 64.9261 12.3549C65.1326 12.3228 65.3563 12.3353 65.5613 12.3811C66.0016 12.4795 66.3574 12.7503 66.6642 13.0763C67.6462 14.1189 68.2812 15.3531 68.5094 16.7893C68.5512 17.0503 68.6593 17.1357 68.8798 17.1405C69.1469 17.1461 69.4239 17.1912 69.6787 17.133C69.9166 17.0787 70.1503 16.9386 70.3459 16.7839C70.4352 16.7132 70.4862 16.5023 70.4583 16.3782C69.5435 12.3014 69.7562 8.24894 70.6875 4.21206C70.9105 3.24508 71.2462 2.3166 71.7615 1.46742C71.8657 1.29625 71.98 1.13188 72.1039 0.975268C73.043 -0.208622 74.3891 -0.323912 75.5121 0.684637C76.266 1.36194 76.6696 2.25674 76.9532 3.21602C77.3866 4.68091 77.4842 6.18931 77.4625 7.70983C77.4394 9.32255 77.297 10.916 76.7454 12.4454C76.2037 13.9474 75.3214 15.2324 74.3584 16.4682C74.1968 16.6759 74.0236 16.8753 73.873 17.0915C73.8268 17.158 73.7986 17.2882 73.8302 17.3536C74.1687 18.0398 74.5114 18.725 74.8752 19.3969C74.9905 19.6099 75.1603 19.7961 75.3258 19.9749C75.5883 20.2591 75.9115 20.3966 76.3039 20.4054C77.3647 20.4291 78.3041 20.1181 79.1281 19.4219C79.3035 19.2735 79.3426 19.1418 79.303 18.9126C78.8155 16.1229 79.5383 13.7078 81.5121 11.7309C82.4701 10.7711 83.6533 10.3013 85.0122 10.3498C87.0975 10.4244 88.6425 12.3216 88.3363 14.4494C88.0698 16.2977 87.0556 17.6619 85.6572 18.7646C84.9132 19.3507 84.0771 19.7564 83.1207 20.0301C83.2273 20.1144 83.3016 20.1829 83.3846 20.2359C84.3446 20.8437 85.4043 20.9778 86.5 20.9085C88.4289 20.7857 89.8584 19.7487 91.0316 18.2555C91.2278 18.0059 91.4036 17.7397 91.5938 17.4849C91.8161 17.1867 92.008 17.1579 92.2566 17.4315C92.695 17.9135 92.9737 18.4813 92.9947 19.1553C93.0055 19.4964 92.898 19.8045 92.6939 20.0761C90.7502 22.6585 88.19 23.8231 85.0307 23.5939C83.6115 23.4911 82.3027 23.0559 81.1761 22.1323C80.9399 21.9386 80.7287 21.7136 80.56 21.5539C79.8084 21.9754 79.0974 22.4343 78.3387 22.7851C77.4004 23.2192 76.402 23.4313 75.3651 23.2305C74.2288 23.0099 73.3449 22.3476 72.6732 21.4178C72.2137 20.7811 71.8577 20.0663 71.458 19.3844C71.4075 19.2991 71.3749 19.2031 71.3259 19.0932C70.4658 19.3541 69.6022 19.3443 68.7601 19.1692C68.597 19.7589 68.4591 20.3356 68.2775 20.8966C67.9941 21.7737 67.551 22.5578 66.8398 23.1427C65.6649 24.1095 64.3883 24.1409 63.0741 23.4921C62.0355 22.9795 61.2875 22.1328 60.6931 21.1385C60.1766 20.274 59.7735 19.3574 59.5917 18.351C59.5855 18.3165 59.5659 18.285 59.5288 18.1932C58.8829 19.3001 57.9421 19.4818 56.8757 19.154C56.7081 19.7595 56.565 20.3338 56.3886 20.8974C56.1727 21.5853 55.8366 22.2108 55.3581 22.7459C54.3366 23.8888 52.959 24.2185 51.5506 23.6603C50.5971 23.2821 49.8601 22.6165 49.2445 21.7956C48.4923 20.7921 48.0999 19.8854 47.6289 18.0605C47.0419 19.2816 46.0975 19.5045 45.0014 19.1571C44.7926 19.8586 44.6237 20.5315 44.388 21.1788C44.2399 21.5858 44.0259 21.9793 43.7825 22.3367C42.707 23.9128 40.9726 24.353 39.294 23.4954C38.3658 23.0211 37.6644 22.2878 37.0888 21.4161C36.4888 20.5051 36.2372 19.8775 35.7275 18.0138V18.0138ZM4.59173 21.5647C5.4114 21.5847 6.13941 21.3478 6.64052 20.6722C7.06457 20.1 7.40071 19.4587 7.76509 18.8412C7.80063 18.781 7.77538 18.6682 7.75218 18.5873C7.43696 17.4894 7.11816 16.3926 6.79578 15.2969C6.76361 15.1879 6.71927 15.0659 6.64314 14.9889C5.77653 14.1141 4.26289 13.9836 3.35026 14.9929C3.04518 15.3302 2.7631 15.7195 2.57717 16.1358C1.93558 17.5719 2.03584 19.0273 2.60448 20.4624C2.81155 20.985 3.20642 21.3277 3.74607 21.454C4.02178 21.5189 4.30947 21.5298 4.59173 21.5647ZM8.91116 15.5351C8.94539 15.5334 8.97925 15.5315 9.01311 15.5301C9.21363 14.6565 9.43435 13.7873 9.61055 12.9087C10.0896 10.5207 10.4052 8.11306 10.3326 5.66675C10.3099 4.90399 10.2404 4.14431 9.95585 3.42716C9.79386 3.01835 9.60008 2.98621 9.31033 3.31341C8.97719 3.69007 8.80753 4.15374 8.67547 4.63299C8.34888 5.8188 8.2836 7.03849 8.2634 8.26011C8.23384 10.0353 8.36235 11.8023 8.58344 13.5613C8.66687 14.2227 8.80043 14.8775 8.91116 15.5351V15.5351ZM72.8031 14.2411C73.2123 13.7809 73.5004 13.2903 73.7404 12.7705C74.7003 10.6935 75.034 8.49415 74.9052 6.21414C74.8623 5.45446 74.7594 4.69766 74.4527 3.99129C74.3547 3.76494 74.2462 3.49298 73.9746 3.48894C73.7018 3.4849 73.6044 3.77091 73.5412 3.98783C73.3418 4.67052 73.134 5.35533 73.0051 6.0542C72.6774 7.82455 72.5803 9.62088 72.5229 11.4189C72.4922 12.3559 72.5911 13.2792 72.8031 14.2411V14.2411ZM81.972 17.8151L82.0753 17.8504C82.2077 17.7982 82.3418 17.7501 82.4718 17.6927C83.675 17.1588 84.6847 16.387 85.263 15.1431C85.4228 14.8001 85.5103 14.3919 85.5184 14.011C85.532 13.3614 85.0066 12.9814 84.3916 13.1323C83.9243 13.247 83.5528 13.525 83.2339 13.8822C82.62 14.5697 82.2593 15.391 82.1076 16.3008C82.0238 16.7985 82.0147 17.3097 81.972 17.8151ZM39.2229 3.15558C38.444 3.80594 37.4656 9.02903 37.6638 9.96329C38.3988 8.8073 39.4059 4.44033 39.2229 3.15558ZM51.1317 3.19831C50.4381 3.78958 49.3689 9.00747 49.5647 10.0349C50.4579 7.79702 51.0007 5.54934 51.1317 3.19831ZM61.4214 9.94693C62.3075 7.78355 62.873 5.54126 63.0466 3.20331L62.9093 3.16963C61.9832 5.32204 61.56 7.59897 61.4214 9.94693V9.94693Z" fill="#EA4C89"/>
<path d="M26.5085 7.62827C26.5093 6.54543 27.2424 5.72762 28.2986 5.63138C29.258 5.544 30.1892 6.32851 30.3617 7.37016C30.4511 7.91024 30.3951 8.4326 30.1587 8.92591C29.8186 9.63574 29.1249 9.99836 28.3643 9.87402C27.2669 9.69483 26.5076 8.77597 26.5085 7.62827Z" fill="#EA4C89"/>
</g>
<defs>
<clipPath id="clip0_19_21">
<rect width="93" height="24" fill="white"/>
</clipPath>
</defs>
</svg>
