<svg width="57" height="23" viewBox="0 0 57 23" fill="none" xmlns="http://www.w3.org/2000/svg">
<g clip-path="url(#clip0_19_39)">
<path d="M0 0V1.5736H11.0949V0H0ZM12.6669 0V1.5736H28.4777C28.4777 1.5736 26.8627 0 24.7238 0H12.6669ZM31.5793 0V1.5736H41.1446L40.5769 0H31.5793ZM48.0024 0L47.4347 1.5736H56.9131V0H48.0024ZM0 3.06027V4.63387H11.0949V3.06027H0ZM12.6669 3.06251V4.63392H30.3124C30.3124 4.63392 30.1063 3.4228 29.7468 3.06251H12.6669ZM31.5793 3.06251V4.63392H42.1933L41.6679 3.06251H31.5793ZM46.8669 3.06251L46.3414 4.63392H56.9131V3.06251H46.8669V3.06251ZM3.18841 6.12053V7.69638H7.99334V6.12053H3.18841V6.12053ZM15.8553 6.12053V7.69638H20.6603V6.12053H15.8553V6.12053ZM25.3338 6.12053V7.69638H30.1388C30.1388 7.69638 30.4438 6.86418 30.4438 6.12053H25.3338V6.12053ZM34.7678 6.12053V7.69638H43.2866L42.7188 6.12053H34.7678V6.12053ZM45.8204 6.12053L45.2504 7.69638H53.8115V6.12053H45.8204V6.12053ZM3.18841 9.18309V10.7567H7.99334V9.18309H3.18841V9.18309ZM15.8553 9.18309V10.7567H28.1281C28.1281 10.7567 29.1548 9.94928 29.4819 9.18309H15.8553ZM34.7678 9.18309V10.7567H39.5727V9.88074L39.8778 10.7567H48.6794L49.0067 9.88074V10.7567H53.8116V9.18309H44.7917L44.3131 10.5159L43.8321 9.18309H34.7678ZM3.18841 12.2434V13.817H7.99334V12.2434H3.18841ZM15.8553 12.2434V13.817H29.4819C29.1548 13.0533 28.1281 12.2434 28.1281 12.2434H15.8553ZM34.7678 12.2434V13.817H39.5727V12.2434H34.7678ZM40.4455 12.2434L41.0266 13.817H47.6261L48.1783 12.2434H40.4455ZM49.0066 12.2434V13.817H53.8115V12.2434H49.0066ZM3.18841 15.3036V16.8772H7.99334V15.3036H3.18841ZM15.8553 15.3036V16.8772H20.6603V15.3036H15.8553ZM25.3338 15.3036V16.8772H30.4438C30.4438 16.1346 30.1387 15.3036 30.1387 15.3036H25.3338V15.3036ZM34.7678 15.3036V16.8772H39.5727V15.3036H34.7678ZM41.5365 15.3036L42.0999 16.8772H46.524L47.0918 15.3036H41.5365ZM49.0066 15.3036V16.8772H53.8115V15.3036H49.0066ZM0.086811 18.3639V19.9397H11.1817V18.3639H0.086811ZM12.6669 18.3639V19.9397H29.7468C30.1063 19.5789 30.3124 18.3639 30.3124 18.3639H12.6669V18.3639ZM31.6662 18.3639V19.9397H39.5727V18.3639H31.6662ZM42.6297 18.3639L43.2086 19.9397H45.4597L46.0029 18.3639H42.6297ZM49.0066 18.3639V19.9397H57V18.3639H49.0066ZM0.086811 21.4264V23H11.1817V21.4264H0.086811ZM12.6669 21.4264V22.9978H24.7238C26.8627 22.9978 28.4777 21.4264 28.4777 21.4264H12.6669ZM31.6662 21.4264V23H39.5727V21.4264H31.6662ZM43.7274 21.4264L44.2841 22.9956L44.3799 22.9978L44.9454 21.4264H43.7274V21.4264ZM49.0066 21.4264V23H57V21.4264H49.0066Z" fill="#1F70C1"/>
</g>
<defs>
<clipPath id="clip0_19_39">
<rect width="57" height="23" fill="white"/>
</clipPath>
</defs>
</svg>
