<svg width="79" height="27" viewBox="0 0 79 27" fill="none" xmlns="http://www.w3.org/2000/svg">
<g clip-path="url(#clip0_19_3)">
<path d="M6.66798 13.8634C5.7195 13.3514 5.22754 12.9106 5.22754 12.305C5.22754 11.537 5.89236 11.0427 6.97602 11.0427C7.77953 11.06 8.57205 11.2339 9.30954 11.5548L10.1849 8.88322C10.1849 8.88322 9.38267 8.25985 7.03142 8.25985C3.75164 8.25985 1.47352 10.1455 1.47352 12.7993C1.47352 14.2998 2.53059 15.453 3.95109 16.2767C5.09901 16.9446 5.50233 17.3899 5.50233 18.0889C5.50233 18.788 4.93723 19.3713 3.86244 19.3713C2.27795 19.3713 0.78211 18.5476 0.78211 18.5476L-0.146423 21.2191C-0.146423 21.2191 1.23862 22.1519 3.55219 22.1519C6.92283 22.1519 9.34721 20.4867 9.34721 17.4767C9.36494 15.8471 8.14388 14.7117 6.66798 13.8523V13.8634ZM20.1151 8.24427C18.4575 8.24427 17.1455 9.03238 16.1417 10.2479L16.0863 10.2301L17.5267 2.66072H13.7749L10.1295 21.9382H13.8835L15.14 15.3484C15.632 12.8594 16.9129 11.321 18.1095 11.321C18.9472 11.321 19.2752 11.8887 19.2752 12.7124C19.2748 13.2716 19.2198 13.8293 19.1112 14.3777L17.6907 21.9204H21.4447L22.9206 14.1284C23.0822 13.3216 23.1734 12.5022 23.1932 11.6794C23.1755 9.55556 22.063 8.27544 20.1129 8.27544L20.1151 8.24427ZM31.6674 8.24427C27.1489 8.24427 24.1594 12.3451 24.1594 16.9023C24.1594 19.8321 25.9633 22.1742 29.3339 22.1742C33.7661 22.1742 36.7688 18.1824 36.7688 13.5161C36.7688 10.8067 35.1843 8.24427 31.6719 8.24427H31.6674ZM29.8259 19.2822C28.5494 19.2822 28.0043 18.1847 28.0043 16.8333C28.0043 14.6738 29.1123 11.1407 31.1577 11.1407C32.4874 11.1407 32.9306 12.2939 32.9306 13.4115C32.9262 15.7313 31.8159 19.2822 29.8281 19.2822H29.8259ZM46.371 8.24427C43.8381 8.24427 42.3976 10.4706 42.3976 10.4706H42.3422L42.5638 8.4669H39.2397C39.0757 9.84052 38.7832 11.9088 38.4752 13.4649L35.8691 27.268H39.6054L40.6447 21.6844H40.7179C40.7179 21.6844 41.4824 22.1786 42.9228 22.1786C47.3328 22.1786 50.2115 17.6392 50.2115 13.0508C50.2292 10.524 49.1035 8.2554 46.3666 8.2554L46.371 8.24427ZM42.781 19.3379C42.2147 19.3492 41.6636 19.1539 41.2298 18.788L41.8503 15.2549C42.2935 12.9106 43.5079 11.3366 44.8198 11.3366C45.9677 11.3366 46.3134 12.3985 46.3134 13.4048C46.32 15.8604 44.8819 19.3379 42.7855 19.3379H42.781ZM55.5921 2.82547C55.3076 2.82365 55.0256 2.87894 54.7627 2.98808C54.4998 3.09722 54.2612 3.25802 54.061 3.46104C53.8608 3.66406 53.7029 3.90521 53.5967 4.17034C53.4905 4.43548 53.4381 4.71925 53.4425 5.00501C53.4425 6.11816 54.1539 6.89068 55.2154 6.89068H55.2708C55.5603 6.902 55.8492 6.85364 56.1194 6.74858C56.3897 6.64352 56.6357 6.48398 56.8423 6.27979C57.0489 6.0756 57.2116 5.83109 57.3206 5.56131C57.4295 5.29153 57.4823 5.0022 57.4758 4.71114C57.4758 3.61358 56.7467 2.82547 55.5987 2.82547H55.5921ZM50.3445 21.9004H54.0985L56.6492 8.54259H52.8818L50.3445 21.9004ZM66.2026 8.52478H63.5943L63.7228 7.90141C63.9445 6.61907 64.7068 5.46585 65.9389 5.46585C66.3468 5.46599 66.7525 5.52752 67.1423 5.6484L67.8669 2.69857C67.8669 2.69857 67.2021 2.36907 65.8259 2.36907C64.4884 2.33531 63.1828 2.78302 62.145 3.63138C60.8686 4.72895 60.268 6.30293 59.9755 7.89696L59.8669 8.52032H58.1184L57.571 11.3589H59.3195L57.3251 21.9026H61.0924L63.0868 11.3589H65.6752L66.1849 8.52032L66.2026 8.52478ZM75.242 8.54259C75.242 8.54259 72.8907 14.4913 71.8337 17.7327H71.7783C71.7052 16.6886 70.8497 8.54259 70.8497 8.54259H66.8941L69.1544 20.8072C69.209 21.0169 69.1829 21.2394 69.0814 21.4306C68.5903 22.3397 67.8906 23.1181 67.0404 23.7014C66.3886 24.153 65.6769 24.5105 64.9262 24.7634L65.9656 27.967C67.3409 27.5973 68.6034 26.8905 69.6398 25.9099C71.3528 24.2981 72.9373 21.8091 74.5595 18.4229L79.1512 8.53814H75.2398L75.242 8.54259Z" fill="#303030"/>
</g>
<defs>
<clipPath id="clip0_19_3">
<rect width="79" height="27" fill="white"/>
</clipPath>
</defs>
</svg>
