<svg width="76" height="32" viewBox="0 0 76 32" fill="none" xmlns="http://www.w3.org/2000/svg">
<g clip-path="url(#clip0_19_6)">
<path d="M1.22552 25.937L8.79094 14.2043H2.11557C2.054 13.8364 2.02915 13.4633 2.0414 13.0905C2.02915 12.7176 2.054 12.3445 2.11557 11.9766H12.8703L13.0187 12.3479L5.37909 24.0806H12.4995C12.5611 24.4485 12.5859 24.8216 12.5736 25.1944C12.5886 25.5427 12.5637 25.8915 12.4995 26.234H1.2997L1.22552 25.937Z" fill="#FF4A00"/>
<path d="M22.9576 16.8775C22.9988 16.4573 22.9471 16.0333 22.8061 15.6354C22.6651 15.2375 22.4382 14.8757 22.1417 14.5755C21.4247 14.0822 20.5619 13.8467 19.6941 13.9072C19.0734 13.9168 18.454 13.9664 17.8398 14.0557C17.2869 14.1359 16.7412 14.2601 16.208 14.427C15.8288 13.7482 15.6489 12.976 15.6888 12.1993C16.362 11.9726 17.0588 11.8231 17.7656 11.7537C18.5006 11.6304 19.2459 11.5807 19.9907 11.6052C21.505 11.5105 23.0035 11.9579 24.2185 12.8676C25.1827 13.6844 25.7019 15.0953 25.7019 16.9518V25.9369C25.0344 26.0854 24.2926 26.2339 23.3284 26.3825C22.3962 26.5304 21.4538 26.6049 20.5099 26.6052C19.6887 26.6116 18.8689 26.537 18.0623 26.3825C17.3923 26.2481 16.7596 25.9693 16.208 25.5656C15.6989 25.2042 15.2904 24.7185 15.0213 24.1547C14.71 23.5069 14.5574 22.7941 14.5763 22.0755C14.5445 21.3467 14.7249 20.6244 15.0955 19.9963C15.3947 19.3871 15.8568 18.873 16.4305 18.5112C17.029 18.126 17.678 17.8261 18.359 17.6201C19.1064 17.4073 19.8814 17.3072 20.6583 17.323C21.154 17.3046 21.6503 17.3295 22.1417 17.3973C22.5125 17.3973 22.8092 17.4716 23.1059 17.4716V16.8775H22.9576ZM22.9576 19.5508C22.6077 19.5327 22.2601 19.483 21.9192 19.4022C21.4742 19.4022 21.1033 19.328 20.8066 19.328C19.8692 19.2717 18.9371 19.5049 18.1365 19.9963C17.8435 20.2223 17.6096 20.516 17.4546 20.8522C17.2996 21.1884 17.2282 21.5572 17.2464 21.927C17.2045 22.3365 17.2799 22.7495 17.4638 23.1177C17.6477 23.4859 17.9324 23.7941 18.2848 24.0062C18.6041 24.1823 18.9591 24.2839 19.3232 24.3032C19.666 24.3624 20.0139 24.3872 20.3616 24.3775C20.8079 24.3898 21.2545 24.365 21.6967 24.3032C22.1417 24.229 22.5867 24.1547 22.8834 24.0805V19.5508H22.9576Z" fill="#FF4A00"/>
<path d="M28.7428 11.9766C28.9653 11.9766 29.1137 11.9023 29.3362 11.9023H30.5229C30.7454 11.9023 30.8938 11.9766 31.1163 11.9766C31.1567 12.0967 31.1816 12.2214 31.1904 12.3479C31.1904 12.5706 31.2646 12.7191 31.2646 12.9419C31.2646 13.1647 31.3388 13.3875 31.3388 13.6102C31.3369 13.7379 31.3622 13.8644 31.4129 13.9815L32.0805 13.0904C32.3689 12.8026 32.6929 12.5531 33.0447 12.3479C33.9079 11.8696 34.8766 11.6144 35.8632 11.6053C36.652 11.5951 37.4345 11.7467 38.1625 12.0508C38.8798 12.3391 39.5162 12.7978 40.0168 13.3875C40.557 14.0432 40.9605 14.8007 41.2035 15.6152C41.5168 16.6499 41.6669 17.7272 41.6485 18.8083C41.7668 20.9274 41.0474 23.0079 39.6459 24.6003C38.3108 26.0112 36.4566 26.6795 34.0089 26.6795C33.5873 26.6919 33.1653 26.667 32.748 26.6053C32.303 26.531 31.9321 26.4568 31.6355 26.3825V32.9914C31.4129 32.9914 31.1904 33.0657 30.8937 33.0657H29.5587C29.3362 33.0657 29.1137 32.9914 28.8911 32.9914V11.9766H28.7428ZM31.4871 24.0063C31.8479 24.1397 32.2204 24.2392 32.5997 24.3033C33.0911 24.3711 33.5874 24.396 34.0831 24.3776C34.7142 24.3939 35.3429 24.2932 35.9374 24.0805C36.4859 23.8926 36.973 23.5589 37.3466 23.1152C37.7694 22.6095 38.0962 22.0307 38.3108 21.4073C38.5652 20.6157 38.6904 19.7882 38.6817 18.9568C38.7284 17.7174 38.447 16.4877 37.8658 15.3924C37.5824 14.9493 37.1847 14.5912 36.7146 14.3559C36.2446 14.1206 35.7197 14.0169 35.1957 14.0558C34.7415 14.0572 34.2906 14.1325 33.8606 14.2785C33.4381 14.4381 33.0576 14.6921 32.748 15.0211C32.3929 15.3818 32.1153 15.8114 31.9321 16.2835C31.7078 16.8756 31.6068 17.5073 31.6355 18.1399V24.0063H31.4871Z" fill="#FF4A00"/>
<path d="M44.9862 14.1301H43.1319C43.0656 13.9653 43.0402 13.787 43.0578 13.6103V12.4221C43.0578 12.1994 43.1319 12.0508 43.1319 11.9023H47.6564V26.3083C47.4338 26.3083 47.2113 26.3825 46.9888 26.3825H45.6537C45.4312 26.3825 45.2087 26.3083 44.9862 26.3083V14.1301Z" fill="#FF4A00"/>
<path d="M53.6643 19.8478C53.7384 21.4072 54.1093 22.5953 54.851 23.2636C55.7977 24.0697 57.0235 24.4699 58.2628 24.3775C59.5537 24.3854 60.8353 24.159 62.0455 23.7092C62.225 24.0331 62.3503 24.3843 62.4164 24.7488C62.5023 25.1394 62.5519 25.5371 62.5647 25.9369C61.9263 26.2226 61.2529 26.4224 60.5621 26.531C59.7555 26.6855 58.9357 26.7601 58.1145 26.7537C56.9788 26.7987 55.8452 26.6222 54.7768 26.2339C53.9191 25.8311 53.1404 25.2779 52.4775 24.6003C51.8617 23.9173 51.4056 23.1056 51.1425 22.224C50.839 21.2635 50.6888 20.2611 50.6974 19.2537C50.7018 18.2523 50.8263 17.2551 51.0683 16.2834C51.3233 15.414 51.7523 14.6055 52.3292 13.9072C52.9194 13.2439 53.6226 12.6908 54.406 12.2735C55.3779 11.8099 56.4448 11.581 57.5211 11.6052C58.3605 11.5687 59.1972 11.7235 59.9681 12.0579C60.7391 12.3924 61.424 12.8977 61.9714 13.5359C62.4987 14.1329 62.8796 14.8449 63.0839 15.6151C63.3624 16.4777 63.4879 17.3825 63.4548 18.2884V19.1052C63.4548 19.4023 63.3806 19.625 63.3806 19.8478H53.6643ZM60.7846 17.7686C60.7889 17.2649 60.7138 16.7637 60.5621 16.2834C60.4096 15.8428 60.2107 15.4196 59.9688 15.0211C59.6953 14.6484 59.34 14.3436 58.9304 14.13C58.4677 13.9107 57.9583 13.8087 57.447 13.8329C56.965 13.8085 56.4834 13.8887 56.0353 14.0682C55.5872 14.2476 55.1832 14.522 54.851 14.8726C54.1943 15.702 53.8061 16.7124 53.7384 17.7686H60.7846Z" fill="#FF4A00"/>
<path d="M66.5699 11.9766C66.7924 11.9766 66.9408 11.9023 67.1633 11.9023H68.35C68.5725 11.9023 68.7208 11.9766 68.9434 11.9766C69.0392 12.3402 69.089 12.7144 69.0917 13.0904C69.1511 13.4836 69.1759 13.8811 69.1659 14.2786C69.544 13.6148 70.0788 13.0539 70.7235 12.6449C71.4541 12.1817 72.3068 11.9489 73.1711 11.9766H73.6161C73.7446 11.9572 73.8758 11.9835 73.987 12.0508C73.987 12.1994 74.0611 12.4221 74.0611 12.5706V13.1647C74.0732 13.39 74.0481 13.6158 73.987 13.833C73.987 14.0558 73.9128 14.2786 73.9128 14.5013C73.7645 14.5013 73.6161 14.4271 73.4678 14.4271H73.0969C72.6181 14.4226 72.1418 14.4979 71.6877 14.6499C71.215 14.795 70.7831 15.0493 70.4268 15.3924C70.0138 15.8076 69.7083 16.3174 69.5367 16.8776C69.3047 17.6472 69.2044 18.4507 69.24 19.2538V26.3825C69.0175 26.3825 68.795 26.4568 68.5725 26.4568H67.2374C67.0149 26.4568 66.7182 26.3825 66.4957 26.3825V11.9766H66.5699Z" fill="#FF4A00"/>
<path d="M50.3266 3.51122H47.5823L49.5107 1.58053C49.3623 1.35775 49.214 1.20924 49.0657 0.986467C48.8522 0.832015 48.6535 0.657996 48.4723 0.466664L46.5439 2.39736V-0.27591C46.3017 -0.33731 46.0517 -0.362336 45.8022 -0.350168C45.5525 -0.366238 45.302 -0.341151 45.0604 -0.27591V2.47162L43.0578 0.466664C42.8276 0.598854 42.6259 0.775545 42.4645 0.986467C42.3161 1.20924 42.0936 1.35775 41.9453 1.58053L43.8737 3.51122H41.2036C41.2036 3.51122 41.1294 4.03102 41.1294 4.2538C41.1134 4.50372 41.1384 4.75458 41.2036 4.99637H43.9479L41.9453 7.00132C42.2383 7.44311 42.6166 7.82181 43.0578 8.11518L44.9863 6.18449V8.93202C45.2285 8.99342 45.4784 9.01844 45.728 9.00627C45.9776 9.02234 46.2282 8.99726 46.4697 8.93202V6.18449L48.3981 8.11518C48.6284 7.98299 48.8301 7.8063 48.9915 7.59538C49.1826 7.41393 49.3564 7.21505 49.5107 7.00132L47.5823 5.07063H50.3266C50.3879 4.82815 50.4129 4.57789 50.4007 4.32805C50.4164 4.0536 50.3914 3.77834 50.3266 3.51122V3.51122ZM46.9147 4.2538C46.9073 4.58066 46.8575 4.90517 46.7664 5.21914C46.4599 5.33945 46.1306 5.39017 45.8022 5.36766C45.4757 5.36028 45.1515 5.31035 44.8379 5.21914C44.7178 4.91231 44.6671 4.5826 44.6896 4.2538C44.697 3.92693 44.7468 3.60242 44.8379 3.28845C45.1444 3.16814 45.4737 3.11742 45.8022 3.13993C46.1286 3.14731 46.4528 3.19724 46.7664 3.28845C46.8519 3.60362 46.9017 3.92745 46.9147 4.2538V4.2538Z" fill="#FF4A00"/>
</g>
<defs>
<clipPath id="clip0_19_6">
<rect width="76" height="32" fill="white"/>
</clipPath>
</defs>
</svg>
